<?xml version="1.0" encoding="UTF-8"?>
<svg id="Layer_1" data-name="Layer 1" xmlns="http://www.w3.org/2000/svg" viewBox="0 0 492.14 72.99">
  <defs>
    <style>
      .cls-1 {
        fill: #004040;
      }
    </style>
  </defs>
  <g>
    <path class="cls-1" d="M27.19,56.7h30.48c6.26,0,11.36-5.1,11.36-11.36v-3.1h-7.92v3.1c0,1.9-1.54,3.44-3.44,3.44h-30.48c-1.9,0-3.44-1.54-3.44-3.44v-20.57c0-1.9,1.54-3.44,3.44-3.44h30.48c1.9,0,3.44,1.54,3.44,3.44v10.5h7.92v-10.5c0-6.26-5.1-11.36-11.36-11.36h-30.48c-6.26,0-11.36,5.1-11.36,11.36v20.57c0,6.26,5.1,11.36,11.36,11.36Z"/>
    <path class="cls-1" d="M50.78,41.81v-3.1c0-1.9,1.54-3.44,3.44-3.44h44.24c1.9,0,3.44,1.54,3.44,3.44v20.57c0,1.9-1.54,3.44-3.44,3.44h-44.24c-1.9,0-3.44-1.54-3.44-3.44v-10.5h-7.92v10.5c0,6.26,5.1,11.36,11.36,11.36h44.24c6.26,0,11.36-5.1,11.36-11.36v-20.57c0-6.26-5.1-11.36-11.36-11.36h-44.24c-6.26,0-11.36,5.1-11.36,11.36v3.1h7.92Z"/>
  </g>
  <g>
    <path class="cls-1" d="M136.27,20.47c2.68-4.74,6.33-8.46,10.96-11.13,4.63-2.68,9.77-4.02,15.41-4.02,6.64,0,12.43,1.6,17.38,4.8,4.95,3.2,8.56,7.74,10.83,13.62h-9.52c-1.69-3.67-4.12-6.49-7.29-8.47-3.17-1.98-6.97-2.97-11.39-2.97s-8.07.99-11.44,2.97c-3.38,1.98-6.02,4.79-7.95,8.43-1.92,3.64-2.88,7.9-2.88,12.79s.96,9.07,2.88,12.71c1.92,3.64,4.57,6.45,7.95,8.43,3.38,1.98,7.19,2.97,11.44,2.97s8.22-.98,11.39-2.93c3.17-1.95,5.6-4.76,7.29-8.43h9.52c-2.27,5.82-5.88,10.32-10.83,13.49-4.95,3.17-10.74,4.76-17.38,4.76-5.65,0-10.79-1.32-15.41-3.97-4.63-2.65-8.28-6.33-10.96-11.05-2.68-4.72-4.02-10.04-4.02-15.98s1.34-11.28,4.02-16.02Z"/>
    <path class="cls-1" d="M202.64,29.99c1.98-3.7,4.7-6.56,8.16-8.6,3.46-2.04,7.32-3.06,11.57-3.06s7.83.9,10.92,2.71c3.08,1.81,5.38,4.08,6.9,6.81v-8.73h8.03v47.85h-8.03v-8.91c-1.57,2.8-3.92,5.11-7.03,6.94-3.11,1.83-6.74,2.75-10.87,2.75s-8.09-1.05-11.53-3.14c-3.44-2.1-6.14-5.03-8.12-8.82-1.98-3.78-2.97-8.09-2.97-12.92s.99-9.18,2.97-12.88ZM238,33.52c-1.46-2.68-3.42-4.73-5.89-6.16-2.47-1.43-5.2-2.14-8.16-2.14s-5.68.7-8.12,2.1-4.4,3.44-5.85,6.11c-1.46,2.68-2.18,5.82-2.18,9.43s.73,6.85,2.18,9.56c1.45,2.71,3.41,4.77,5.85,6.2,2.44,1.43,5.15,2.14,8.12,2.14s5.69-.71,8.16-2.14c2.47-1.43,4.44-3.49,5.89-6.2,1.46-2.71,2.18-5.86,2.18-9.47s-.73-6.75-2.18-9.43Z"/>
    <path class="cls-1" d="M364.1,46.01h-38.25c.29,4.72,1.91,8.4,4.85,11.05,2.94,2.65,6.51,3.97,10.7,3.97,3.43,0,6.3-.8,8.6-2.4,2.3-1.6,3.92-3.74,4.85-6.42h8.56c-1.28,4.6-3.84,8.34-7.69,11.22-3.84,2.88-8.62,4.32-14.32,4.32-4.54,0-8.6-1.02-12.18-3.06-3.58-2.04-6.39-4.93-8.43-8.69-2.04-3.76-3.06-8.11-3.06-13.06s.99-9.28,2.97-13.01c1.98-3.73,4.76-6.59,8.34-8.6,3.58-2.01,7.7-3.01,12.36-3.01s8.56.99,12.05,2.97c3.49,1.98,6.19,4.7,8.08,8.17,1.89,3.46,2.84,7.38,2.84,11.74,0,1.51-.09,3.11-.26,4.8ZM354.14,31.73c-1.34-2.18-3.16-3.84-5.46-4.98-2.3-1.14-4.85-1.7-7.64-1.7-4.02,0-7.44,1.28-10.26,3.84-2.82,2.56-4.44,6.11-4.85,10.65h30.21c0-3.03-.67-5.63-2.01-7.82Z"/>
    <path class="cls-1" d="M412.3,23.52c3.61,3.52,5.42,8.6,5.42,15.24v28.21h-7.86v-27.07c0-4.77-1.19-8.43-3.58-10.96-2.39-2.53-5.65-3.8-9.78-3.8s-7.53,1.31-10,3.93c-2.48,2.62-3.71,6.43-3.71,11.44v26.46h-7.95V19.11h7.95v6.81c1.57-2.45,3.71-4.34,6.42-5.68,2.71-1.34,5.69-2.01,8.95-2.01,5.82,0,10.54,1.76,14.15,5.28Z"/>
    <path class="cls-1" d="M430.73,29.99c1.98-3.7,4.7-6.56,8.16-8.6,3.46-2.04,7.32-3.06,11.57-3.06s7.83.9,10.92,2.71c3.08,1.81,5.38,4.08,6.9,6.81v-8.73h8.03v47.85h-8.03v-8.91c-1.57,2.8-3.92,5.11-7.03,6.94-3.11,1.83-6.74,2.75-10.87,2.75s-8.09-1.05-11.53-3.14c-3.44-2.1-6.14-5.03-8.12-8.82-1.98-3.78-2.97-8.09-2.97-12.92s.99-9.18,2.97-12.88ZM466.1,33.52c-1.46-2.68-3.42-4.73-5.89-6.16-2.47-1.43-5.2-2.14-8.16-2.14s-5.68.7-8.12,2.1c-2.44,1.4-4.4,3.44-5.85,6.11-1.46,2.68-2.18,5.82-2.18,9.43s.73,6.85,2.18,9.56c1.45,2.71,3.41,4.77,5.85,6.2,2.44,1.43,5.15,2.14,8.12,2.14s5.69-.71,8.16-2.14c2.47-1.43,4.44-3.49,5.89-6.2,1.46-2.71,2.18-5.86,2.18-9.47s-.73-6.75-2.18-9.43Z"/>
    <path class="cls-1" d="M299.22,2.35v25.32c-1.69-2.79-4.13-5.05-7.34-6.77-3.2-1.72-6.67-2.58-10.39-2.58-4.31,0-8.19,1.02-11.66,3.06-3.47,2.04-6.19,4.9-8.17,8.6s-2.97,7.99-2.97,12.88.99,9.14,2.97,12.92c1.98,3.79,4.7,6.72,8.17,8.82,3.46,2.1,7.32,3.14,11.57,3.14s7.74-.92,10.83-2.75c3.08-1.84,5.42-4.18,6.99-7.03v8.99h8.03V10.38l-8.03-8.03ZM297.03,52.43c-1.46,2.71-3.42,4.77-5.89,6.2-2.48,1.43-5.2,2.14-8.16,2.14s-5.68-.71-8.12-2.14c-2.45-1.43-4.4-3.49-5.85-6.2-1.46-2.71-2.18-5.89-2.18-9.56s.73-6.75,2.18-9.43c1.46-2.68,3.41-4.72,5.85-6.11,2.44-1.4,5.15-2.1,8.12-2.1s5.69.71,8.16,2.14c2.47,1.43,4.44,3.48,5.89,6.16,1.46,2.68,2.18,5.82,2.18,9.43s-.73,6.77-2.18,9.47Z"/>
  </g>
</svg>